<svg id="Layer_1" data-name="Layer 1" xmlns="http://www.w3.org/2000/svg" viewBox="0 0 155 155"><defs><style>.cls-1{fill:#fff;}</style></defs><title>Digital signage_iconos</title><g id="_Group_" data-name="&lt;Group&gt;"><path class="cls-1" d="M114.73,134.05H40.27A22.88,22.88,0,0,1,37,88.53,31,31,0,0,1,95,76.87,16.4,16.4,0,0,1,117.9,88.51a22.88,22.88,0,0,1-3.17,45.54ZM40.32,95.29a15.88,15.88,0,1,0,0,31.76h74.45a15.88,15.88,0,0,0,0-31.76h-3.5v-3.5a9.4,9.4,0,0,0-15.46-7.2L92,87.76l-1.76-4.58a24,24,0,0,0-46.43,8.62v3.5Z"/></g></svg>