<svg id="Layer_1" data-name="Layer 1" xmlns="http://www.w3.org/2000/svg" viewBox="0 0 155 155"><defs><style>.cls-1{fill:#fff;}</style></defs><title>Digital signage_iconos</title><g id="_Group_" data-name="&lt;Group&gt;"><path class="cls-1" d="M102.11,134.05H27.33A23,23,0,0,1,24,88.33,31.15,31.15,0,0,1,82.31,76.61a16.47,16.47,0,0,1,23,11.69,23,23,0,0,1-3.18,45.74ZM27.37,95.12a15.95,15.95,0,1,0,0,31.9h74.78a15.95,15.95,0,1,0,0-31.9H98.6V91.6a9.45,9.45,0,0,0-15.53-7.23L79.3,87.55l-1.77-4.6A24.12,24.12,0,0,0,30.89,91.6v3.52Z"/></g><rect class="cls-1" x="96.91" y="20.95" width="6.23" height="13.8"/><rect class="cls-1" x="136.85" y="68.46" width="13.8" height="6.23"/><rect class="cls-1" x="66" y="33.76" width="6.23" height="13.8" transform="translate(-8.5 60.78) rotate(-45)"/><rect class="cls-1" x="124.04" y="37.54" width="13.8" height="6.23" transform="translate(9.61 104.5) rotate(-45)"/><rect class="cls-1" x="127.73" y="95.49" width="6.23" height="13.8" transform="translate(-34.08 122.51) rotate(-45)"/><path class="cls-1" d="M100,43A28.56,28.56,0,0,0,71.61,69.18l6.68,7.35a22.29,22.29,0,1,1,28.33,16.34l7.13,3.7A28.52,28.52,0,0,0,100,43Z"/></svg>