<svg id="Layer_1" data-name="Layer 1" xmlns="http://www.w3.org/2000/svg" viewBox="0 0 344 210"><defs><style>.cls-1{fill:#fff;}</style></defs><title>Digital signage_iconos</title><path class="cls-1" d="M59.42,186.12a19.36,19.36,0,1,0-33.34,13.35H2v6h76v-6H54A19.27,19.27,0,0,0,59.42,186.12Zm-32.7,0a13.34,13.34,0,1,1,13.34,13.35A13.36,13.36,0,0,1,26.72,186.12Z"/><rect class="cls-1" x="37.06" y="153.56" width="6.01" height="8.88"/><rect class="cls-1" x="63.75" y="183.12" width="8.88" height="6.01"/><rect class="cls-1" x="7.5" y="183.12" width="8.88" height="6.01"/><rect class="cls-1" x="17.17" y="161.8" width="6.01" height="8.88" transform="translate(-111.62 62.93) rotate(-44.99)"/><rect class="cls-1" x="55.52" y="163.23" width="8.88" height="6.01" transform="translate(-99.99 91.09) rotate(-45)"/><rect class="cls-1" x="300.93" y="153.56" width="6.01" height="8.88"/><rect class="cls-1" x="327.62" y="183.12" width="8.88" height="6.01"/><rect class="cls-1" x="271.37" y="183.12" width="8.87" height="6.01"/><rect class="cls-1" x="281.04" y="161.8" width="6.01" height="8.88" transform="translate(-34.36 249.49) rotate(-44.99)"/><rect class="cls-1" x="319.38" y="163.23" width="8.88" height="6.01" transform="translate(-22.7 277.66) rotate(-45)"/><path class="cls-1" d="M317.92,199.47a19.36,19.36,0,1,0-28,0h-24v6h76v-6Zm-27.33-13.35a13.34,13.34,0,1,1,13.34,13.35A13.36,13.36,0,0,1,290.59,186.12Z"/><path class="cls-1" d="M295.49,125.19l8.11,12.6,6.86-13.32-6,.29A133.27,133.27,0,0,0,39,126.62a5.64,5.64,0,1,0,3,.17,130.27,130.27,0,0,1,259.43-1.89Z"/></svg>