<svg id="Layer_1" data-name="Layer 1" xmlns="http://www.w3.org/2000/svg" viewBox="0 0 197.84 155"><defs><style>.cls-1{fill:#fff;}</style></defs><title>Digital signage_iconos</title><path class="cls-1" d="M175.13,88.7a16.32,16.32,0,0,0-22.77-11.59,30.86,30.86,0,0,0-57.74,11.6A22.77,22.77,0,0,0,97.9,134H172a22.77,22.77,0,0,0,3.16-45.31ZM172,127H97.9a15.8,15.8,0,1,1,0-31.6h3.48V92a23.89,23.89,0,0,1,46.2-8.57L149.37,88l3.74-3.15A9.36,9.36,0,0,1,168.49,92v3.48H172a15.8,15.8,0,0,1,0,31.6Z"/><path class="cls-1" d="M9.12,82.44A10.22,10.22,0,0,1,19.33,72.23,7.48,7.48,0,0,1,26.8,79.7,5.28,5.28,0,0,1,21.52,85v7A12.26,12.26,0,0,0,33.76,79.7,14.45,14.45,0,0,0,19.33,65.27,17.19,17.19,0,0,0,2.16,82.44,20.61,20.61,0,0,0,22.47,103H68v-7H22.75A13.64,13.64,0,0,1,9.12,82.44Z"/><path class="cls-1" d="M28.93,112.46h0A20.61,20.61,0,0,0,8.62,133.05a17.19,17.19,0,0,0,17.17,17.17,14.45,14.45,0,0,0,14.43-14.43A12.26,12.26,0,0,0,28,123.55v7a5.28,5.28,0,0,1,5.28,5.28,7.48,7.48,0,0,1-7.47,7.47,10.22,10.22,0,0,1-10.21-10.21,13.64,13.64,0,0,1,13.63-13.63H68v-7Z"/><path class="cls-1" d="M66,86.64H86.72v-7H66.33A14.67,14.67,0,0,1,51.68,65a11,11,0,0,1,11-11,8.13,8.13,0,0,1,8.12,8.12,5.81,5.81,0,0,1-5.8,5.8v7A12.78,12.78,0,0,0,77.79,62.13,15.1,15.1,0,0,0,62.7,47a18,18,0,0,0-18,18A21.64,21.64,0,0,0,66,86.64Z"/></svg>