<svg id="Layer_1" data-name="Layer 1" xmlns="http://www.w3.org/2000/svg" viewBox="0 0 155 155"><defs><style>.cls-1{fill:#fff;}</style></defs><title>Digital signage_iconos</title><rect class="cls-1" x="74.43" y="27.13" width="6.2" height="13.74"/><rect class="cls-1" x="74.43" y="114.13" width="6.2" height="13.74"/><path class="cls-1" d="M77.54,106.12A28.62,28.62,0,1,1,106.15,77.5,28.65,28.65,0,0,1,77.54,106.12Zm0-50.74A22.12,22.12,0,1,0,99.65,77.5,22.14,22.14,0,0,0,77.54,55.38Z"/><rect class="cls-1" x="27.04" y="74.4" width="13.74" height="6.2"/><rect class="cls-1" x="114.22" y="74.4" width="13.74" height="6.2"/><rect class="cls-1" x="43.56" y="39.86" width="6.2" height="13.74" transform="translate(-19.38 46.68) rotate(-45)"/><rect class="cls-1" x="105.24" y="101.35" width="6.2" height="13.74" transform="translate(-44.79 108.3) rotate(-45)"/><rect class="cls-1" x="101.37" y="43.63" width="13.74" height="6.2" transform="translate(-1.34 90.23) rotate(-45)"/><rect class="cls-1" x="39.89" y="105.12" width="13.74" height="6.2" transform="translate(-62.83 64.76) rotate(-45)"/></svg>